<?xml version="1.0" standalone="no"?>
<!DOCTYPE svg PUBLIC "-//W3C//DTD SVG 20001102//EN" "http://www.w3.org/TR/2000/CR-SVG-20001102/DTD/svg-20001102.dtd">
<svg xmlns="http://www.w3.org/2000/svg" width="1117" x="0" y="0" height="733" id="/home/jkrueger/sources/qmesydaq/qmesydaq" >
 <rect width="1117" x="10" y="20" height="733" transform="translate(-10,-20)" style="stroke:rgb(0,0,0);stroke-width:0;fill:rgb(255,255,255);" />
 <line transform="translate(-10,-20)" style="stroke:rgb(255,0,0);stroke-width:0.9;fill:none;" y1="720" y2="692" x1="470" x2="470" />
 <line transform="translate(-10,-20)" style="stroke:rgb(255,0,0);stroke-width:0.9;fill:none;" y1="53" y2="370" x1="860" x2="1070" />
 <line transform="translate(-10,-20)" style="stroke:rgb(255,0,0);stroke-width:0.9;fill:none;" y1="40" y2="40" x1="800" x2="246" />
 <line transform="translate(-10,-20)" style="stroke:rgb(255,0,0);stroke-width:0.9;fill:none;" y1="53" y2="240" x1="840" x2="750" />
 <line transform="translate(-10,-20)" style="stroke:rgb(255,0,0);stroke-width:0.9;fill:none;" y1="273" y2="370" x1="720" x2="480" />
 <line transform="translate(-10,-20)" style="stroke:rgb(255,0,0);stroke-width:0.9;fill:none;" y1="390" y2="390" x1="1040" x2="510" />
 <line transform="translate(-10,-20)" style="stroke:rgb(255,0,0);stroke-width:0.9;fill:none;" y1="650" y2="403" x1="210" x2="430" />
 <line transform="translate(-10,-20)" style="stroke:rgb(255,0,0);stroke-width:0.9;fill:none;" y1="53" y2="370" x1="820" x2="450" />
 <line transform="translate(-10,-20)" style="stroke:rgb(255,0,0);stroke-width:0.9;fill:none;" y1="62" y2="370" x1="170" x2="420" />
 <line transform="translate(-10,-20)" style="stroke:rgb(255,0,0);stroke-width:0.9;fill:none;" y1="650" y2="403" x1="470" x2="470" />
 <line transform="translate(-10,-20)" style="stroke:rgb(255,0,0);stroke-width:0.9;fill:none;" y1="330" y2="273" x1="770" x2="770" />
 <line transform="translate(-10,-20)" style="stroke:rgb(255,0,0);stroke-width:0.9;fill:none;" y1="390" y2="390" x1="255" x2="390" />
 <line transform="translate(-10,-20)" style="stroke:rgb(255,0,0);stroke-width:0.9;fill:none;" y1="650" y2="403" x1="150" x2="200" />
 <line transform="translate(-10,-20)" style="stroke:rgb(255,0,0);stroke-width:0.9;fill:none;" y1="370" y2="187" x1="1090" x2="1090" />
 <line transform="translate(-10,-20)" style="stroke:rgb(255,0,0);stroke-width:0.9;fill:none;" y1="53" y2="150" x1="880" x2="1090" />
 <line transform="translate(-10,-20)" style="stroke:rgb(255,0,0);stroke-width:0.9;fill:none;" y1="670" y2="670" x1="273" x2="400" />
 <line transform="translate(-10,-20)" style="stroke:rgb(255,0,0);stroke-width:0.9;fill:none;" y1="62" y2="650" x1="90" x2="90" />
 <polygon points="470 692 463 703 477 703 470 692" transform="translate(-10,-20)" style="stroke:rgb(0,0,0);stroke-width:0;fill:rgb(255,255,255);" />
 <polygon points="860 53 862 64 872 71 869 59" transform="translate(-10,-20)" style="stroke:rgb(0,0,0);stroke-width:0;fill:rgb(255,255,255);" />
 <polygon points="800 40 790 36 778 40 790 44" transform="translate(-10,-20)" style="stroke:rgb(0,0,0);stroke-width:0;fill:rgb(255,255,255);" />
 <polygon points="840 53 832 60 830 73 839 64" transform="translate(-10,-20)" style="stroke:rgb(0,0,0);stroke-width:0;fill:rgb(255,255,255);" />
 <polygon points="480 370 493 372 488 360 480 370" transform="translate(-10,-20)" style="stroke:rgb(0,0,0);stroke-width:0;fill:rgb(255,255,255);" />
 <polygon points="510 390 521 397 521 383 510 390" transform="translate(-10,-20)" style="stroke:rgb(0,0,0);stroke-width:0;fill:rgb(255,255,255);" />
 <polygon points="430 403 418 407 427 416 430 403" transform="translate(-10,-20)" style="stroke:rgb(0,0,0);stroke-width:0;fill:rgb(255,255,255);" />
 <polygon points="450 370 463 368 454 358 450 370" transform="translate(-10,-20)" style="stroke:rgb(0,0,0);stroke-width:0;fill:rgb(255,255,255);" />
 <polygon points="420 370 418 357 408 365 420 370" transform="translate(-10,-20)" style="stroke:rgb(0,0,0);stroke-width:0;fill:rgb(255,255,255);" />
 <polygon points="470 403 463 414 477 414 470 403" transform="translate(-10,-20)" style="stroke:rgb(0,0,0);stroke-width:0;fill:rgb(255,255,255);" />
 <polygon points="770 273 763 284 777 284 770 273" transform="translate(-10,-20)" style="stroke:rgb(0,0,0);stroke-width:0;fill:rgb(255,255,255);" />
 <polygon points="390 390 379 383 379 397 390 390" transform="translate(-10,-20)" style="stroke:rgb(0,0,0);stroke-width:0;fill:rgb(255,255,255);" />
 <polygon points="150 650 156 641 154 628 148 639" transform="translate(-10,-20)" style="stroke:rgb(0,0,0);stroke-width:0;fill:rgb(255,255,255);" />
 <polygon points="1090 370 1094 360 1090 348 1086 360" transform="translate(-10,-20)" style="stroke:rgb(0,0,0);stroke-width:0;fill:rgb(255,255,255);" />
 <polygon points="880 53 887 61 900 62 891 53" transform="translate(-10,-20)" style="stroke:rgb(0,0,0);stroke-width:0;fill:rgb(255,255,255);" />
 <polygon points="273 670 283 674 295 670 283 666" transform="translate(-10,-20)" style="stroke:rgb(0,0,0);stroke-width:0;fill:rgb(255,255,255);" />
 <polygon points="90 62 86 72 90 84 94 72" transform="translate(-10,-20)" style="stroke:rgb(0,0,0);stroke-width:0;fill:rgb(255,255,255);" />
 <rect width="82" x="1040" y="370" height="33" transform="translate(-10,-20)" style="stroke:rgb(255,0,0);stroke-width:0.9;fill:rgb(255,255,192);" />
 <text x="1081" y="385" transform="translate(-10,-20)" style="fill:rgb(0,0,0);stroke-width:0;font-size:12;font-style:normal;font-weight:700;font-family:Adobe Helvetica;" text-anchor="middle" >Histogram</text>
 <line transform="translate(-10,-20)" style="stroke:rgb(255,0,0);stroke-width:0.9;fill:rgb(255,255,192);" y1="387" y2="387" x1="1040" x2="1121" />
 <line transform="translate(-10,-20)" style="stroke:rgb(255,0,0);stroke-width:0.9;fill:rgb(255,255,192);" y1="395" y2="395" x1="1040" x2="1121" />
 <rect width="243" x="30" y="650" height="42" transform="translate(-10,-20)" style="stroke:rgb(255,0,0);stroke-width:0.9;fill:rgb(255,255,192);" />
 <text x="151" y="665" transform="translate(-10,-20)" style="fill:rgb(0,0,0);stroke-width:0;font-size:12;font-style:normal;font-weight:700;font-family:Adobe Helvetica;" text-anchor="middle" >MCPD8</text>
 <line transform="translate(-10,-20)" style="stroke:rgb(255,0,0);stroke-width:0.9;fill:rgb(255,255,192);" y1="667" y2="667" x1="30" x2="272" />
 <text x="35" y="682" transform="translate(-10,-20)" style="fill:rgb(0,0,0);stroke-width:0;font-size:12;font-style:normal;font-weight:400;font-family:Adobe Helvetica;" >+ m_mpsd : QMap&lt; int, MPSD_8 * ></text>
 <line transform="translate(-10,-20)" style="stroke:rgb(255,0,0);stroke-width:0.9;fill:rgb(255,255,192);" y1="684" y2="684" x1="30" x2="272" />
 <rect width="141" x="400" y="650" height="42" transform="translate(-10,-20)" style="stroke:rgb(255,0,0);stroke-width:0.9;fill:rgb(255,255,192);" />
 <text x="470" y="665" transform="translate(-10,-20)" style="fill:rgb(0,0,0);stroke-width:0;font-size:12;font-style:normal;font-weight:700;font-family:Adobe Helvetica;" text-anchor="middle" >MPSD_8</text>
 <line transform="translate(-10,-20)" style="stroke:rgb(255,0,0);stroke-width:0.9;fill:rgb(255,255,192);" y1="667" y2="667" x1="400" x2="540" />
 <text x="405" y="682" transform="translate(-10,-20)" style="fill:rgb(0,0,0);stroke-width:0;font-size:12;font-style:normal;font-weight:400;font-family:Adobe Helvetica;" >+ m_mcpdId : quint8</text>
 <line transform="translate(-10,-20)" style="stroke:rgb(255,0,0);stroke-width:0.9;fill:rgb(255,255,192);" y1="684" y2="684" x1="400" x2="540" />
 <rect width="80" x="430" y="720" height="33" transform="translate(-10,-20)" style="stroke:rgb(255,0,0);stroke-width:0.9;fill:rgb(255,255,192);" />
 <text x="470" y="735" transform="translate(-10,-20)" style="fill:rgb(0,0,0);stroke-width:0;font-size:12;font-style:normal;font-weight:700;font-family:Adobe Helvetica;" text-anchor="middle" >MPSD_8p</text>
 <line transform="translate(-10,-20)" style="stroke:rgb(255,0,0);stroke-width:0.9;fill:rgb(255,255,192);" y1="737" y2="737" x1="430" x2="509" />
 <line transform="translate(-10,-20)" style="stroke:rgb(255,0,0);stroke-width:0.9;fill:rgb(255,255,192);" y1="745" y2="745" x1="430" x2="509" />
 <rect width="105" x="800" y="20" height="33" transform="translate(-10,-20)" style="stroke:rgb(255,0,0);stroke-width:0.9;fill:rgb(255,255,192);" />
 <text x="852" y="35" transform="translate(-10,-20)" style="fill:rgb(0,0,0);stroke-width:0;font-size:12;font-style:normal;font-weight:700;font-family:Adobe Helvetica;" text-anchor="middle" >Measurement</text>
 <line transform="translate(-10,-20)" style="stroke:rgb(255,0,0);stroke-width:0.9;fill:rgb(255,255,192);" y1="37" y2="37" x1="800" x2="904" />
 <line transform="translate(-10,-20)" style="stroke:rgb(255,0,0);stroke-width:0.9;fill:rgb(255,255,192);" y1="45" y2="45" x1="800" x2="904" />
 <rect width="236" x="10" y="20" height="42" transform="translate(-10,-20)" style="stroke:rgb(255,0,0);stroke-width:0.9;fill:rgb(255,255,192);" />
 <text x="128" y="35" transform="translate(-10,-20)" style="fill:rgb(0,0,0);stroke-width:0;font-size:12;font-style:normal;font-weight:700;font-family:Adobe Helvetica;" text-anchor="middle" >Mesydaq2</text>
 <line transform="translate(-10,-20)" style="stroke:rgb(255,0,0);stroke-width:0.9;fill:rgb(255,255,192);" y1="37" y2="37" x1="10" x2="245" />
 <text x="15" y="52" transform="translate(-10,-20)" style="fill:rgb(0,0,0);stroke-width:0;font-size:12;font-style:normal;font-weight:400;font-family:Adobe Helvetica;" >+ m_mcpd : QMap&lt; int, MCPD8 * ></text>
 <line transform="translate(-10,-20)" style="stroke:rgb(255,0,0);stroke-width:0.9;fill:rgb(255,255,192);" y1="54" y2="54" x1="10" x2="245" />
 <rect width="131" x="680" y="240" height="33" transform="translate(-10,-20)" style="stroke:rgb(255,0,0);stroke-width:0.9;fill:rgb(255,255,192);" />
 <text x="745" y="255" transform="translate(-10,-20)" style="fill:rgb(0,0,0);stroke-width:0;font-size:12;font-style:normal;font-weight:700;font-family:Adobe Helvetica;" text-anchor="middle" >MesydaqCounter</text>
 <line transform="translate(-10,-20)" style="stroke:rgb(255,0,0);stroke-width:0.9;fill:rgb(255,255,192);" y1="257" y2="257" x1="680" x2="810" />
 <line transform="translate(-10,-20)" style="stroke:rgb(255,0,0);stroke-width:0.9;fill:rgb(255,255,192);" y1="265" y2="265" x1="680" x2="810" />
 <rect width="120" x="390" y="370" height="33" transform="translate(-10,-20)" style="stroke:rgb(255,0,0);stroke-width:0.9;fill:rgb(255,255,192);" />
 <text x="450" y="385" transform="translate(-10,-20)" style="fill:rgb(0,0,0);stroke-width:0;font-size:12;font-style:normal;font-weight:700;font-family:Adobe Helvetica;" text-anchor="middle" >MesydaqObject</text>
 <line transform="translate(-10,-20)" style="stroke:rgb(255,0,0);stroke-width:0.9;fill:rgb(255,255,192);" y1="387" y2="387" x1="390" x2="509" />
 <line transform="translate(-10,-20)" style="stroke:rgb(255,0,0);stroke-width:0.9;fill:rgb(255,255,192);" y1="395" y2="395" x1="390" x2="509" />
 <rect width="112" x="710" y="330" height="33" transform="translate(-10,-20)" style="stroke:rgb(255,0,0);stroke-width:0.9;fill:rgb(255,255,192);" />
 <text x="766" y="345" transform="translate(-10,-20)" style="fill:rgb(0,0,0);stroke-width:0;font-size:12;font-style:normal;font-weight:700;font-family:Adobe Helvetica;" text-anchor="middle" >MesydaqTimer</text>
 <line transform="translate(-10,-20)" style="stroke:rgb(255,0,0);stroke-width:0.9;fill:rgb(255,255,192);" y1="347" y2="347" x1="710" x2="821" />
 <line transform="translate(-10,-20)" style="stroke:rgb(255,0,0);stroke-width:0.9;fill:rgb(255,255,192);" y1="355" y2="355" x1="710" x2="821" />
 <rect width="115" x="140" y="370" height="33" transform="translate(-10,-20)" style="stroke:rgb(255,0,0);stroke-width:0.9;fill:rgb(255,255,192);" />
 <text x="197" y="385" transform="translate(-10,-20)" style="fill:rgb(0,0,0);stroke-width:0;font-size:12;font-style:normal;font-weight:700;font-family:Adobe Helvetica;" text-anchor="middle" >NetworkDevice</text>
 <line transform="translate(-10,-20)" style="stroke:rgb(255,0,0);stroke-width:0.9;fill:rgb(255,255,192);" y1="387" y2="387" x1="140" x2="254" />
 <line transform="translate(-10,-20)" style="stroke:rgb(255,0,0);stroke-width:0.9;fill:rgb(255,255,192);" y1="395" y2="395" x1="140" x2="254" />
 <rect width="77" x="1050" y="150" height="37" transform="translate(-10,-20)" style="stroke:rgb(255,0,0);stroke-width:0.9;fill:rgb(255,255,192);" />
 <text x="1088" y="166" transform="translate(-10,-20)" style="fill:rgb(0,0,0);stroke-width:0;font-size:12;font-style:normal;font-weight:700;font-family:Helvetica [Adobe];" text-anchor="middle" >Spectrum</text>
 <line transform="translate(-10,-20)" style="stroke:rgb(255,0,0);stroke-width:0.9;fill:rgb(255,255,192);" y1="169" y2="169" x1="1050" x2="1126" />
 <line transform="translate(-10,-20)" style="stroke:rgb(255,0,0);stroke-width:0.9;fill:rgb(255,255,192);" y1="178" y2="178" x1="1050" x2="1126" />
 <line transform="translate(-10,-20)" style="stroke:rgb(255,0,0);stroke-width:0.9;fill:none;" y1="692" y2="703" x1="470" x2="463" />
 <line transform="translate(-10,-20)" style="stroke:rgb(255,0,0);stroke-width:0.9;fill:none;" y1="703" y2="703" x1="463" x2="477" />
 <line transform="translate(-10,-20)" style="stroke:rgb(255,0,0);stroke-width:0.9;fill:none;" y1="692" y2="703" x1="470" x2="477" />
 <line transform="translate(-10,-20)" style="stroke:rgb(255,0,0);stroke-width:0.9;fill:none;" y1="53" y2="64" x1="860" x2="862" />
 <line transform="translate(-10,-20)" style="stroke:rgb(255,0,0);stroke-width:0.9;fill:none;" y1="71" y2="59" x1="872" x2="869" />
 <line transform="translate(-10,-20)" style="stroke:rgb(255,0,0);stroke-width:0.9;fill:none;" y1="64" y2="71" x1="862" x2="872" />
 <line transform="translate(-10,-20)" style="stroke:rgb(255,0,0);stroke-width:0.9;fill:none;" y1="59" y2="53" x1="869" x2="860" />
 <line transform="translate(-10,-20)" style="stroke:rgb(255,0,0);stroke-width:0.9;fill:none;" y1="40" y2="36" x1="800" x2="790" />
 <line transform="translate(-10,-20)" style="stroke:rgb(255,0,0);stroke-width:0.9;fill:none;" y1="40" y2="44" x1="778" x2="790" />
 <line transform="translate(-10,-20)" style="stroke:rgb(255,0,0);stroke-width:0.9;fill:none;" y1="36" y2="40" x1="790" x2="778" />
 <line transform="translate(-10,-20)" style="stroke:rgb(255,0,0);stroke-width:0.9;fill:none;" y1="44" y2="40" x1="790" x2="800" />
 <line transform="translate(-10,-20)" style="stroke:rgb(255,0,0);stroke-width:0.9;fill:none;" y1="53" y2="60" x1="840" x2="832" />
 <line transform="translate(-10,-20)" style="stroke:rgb(255,0,0);stroke-width:0.9;fill:none;" y1="73" y2="64" x1="830" x2="839" />
 <line transform="translate(-10,-20)" style="stroke:rgb(255,0,0);stroke-width:0.9;fill:none;" y1="60" y2="73" x1="832" x2="830" />
 <line transform="translate(-10,-20)" style="stroke:rgb(255,0,0);stroke-width:0.9;fill:none;" y1="64" y2="53" x1="839" x2="840" />
 <line transform="translate(-10,-20)" style="stroke:rgb(255,0,0);stroke-width:0.9;fill:none;" y1="370" y2="372" x1="480" x2="493" />
 <line transform="translate(-10,-20)" style="stroke:rgb(255,0,0);stroke-width:0.9;fill:none;" y1="372" y2="360" x1="493" x2="488" />
 <line transform="translate(-10,-20)" style="stroke:rgb(255,0,0);stroke-width:0.9;fill:none;" y1="370" y2="360" x1="480" x2="488" />
 <line transform="translate(-10,-20)" style="stroke:rgb(255,0,0);stroke-width:0.9;fill:none;" y1="390" y2="397" x1="510" x2="521" />
 <line transform="translate(-10,-20)" style="stroke:rgb(255,0,0);stroke-width:0.9;fill:none;" y1="397" y2="383" x1="521" x2="521" />
 <line transform="translate(-10,-20)" style="stroke:rgb(255,0,0);stroke-width:0.9;fill:none;" y1="390" y2="383" x1="510" x2="521" />
 <line transform="translate(-10,-20)" style="stroke:rgb(255,0,0);stroke-width:0.9;fill:none;" y1="403" y2="407" x1="430" x2="418" />
 <line transform="translate(-10,-20)" style="stroke:rgb(255,0,0);stroke-width:0.9;fill:none;" y1="407" y2="416" x1="418" x2="427" />
 <line transform="translate(-10,-20)" style="stroke:rgb(255,0,0);stroke-width:0.9;fill:none;" y1="403" y2="416" x1="430" x2="427" />
 <line transform="translate(-10,-20)" style="stroke:rgb(255,0,0);stroke-width:0.9;fill:none;" y1="370" y2="368" x1="450" x2="463" />
 <line transform="translate(-10,-20)" style="stroke:rgb(255,0,0);stroke-width:0.9;fill:none;" y1="368" y2="358" x1="463" x2="454" />
 <line transform="translate(-10,-20)" style="stroke:rgb(255,0,0);stroke-width:0.9;fill:none;" y1="370" y2="358" x1="450" x2="454" />
 <line transform="translate(-10,-20)" style="stroke:rgb(255,0,0);stroke-width:0.9;fill:none;" y1="370" y2="357" x1="420" x2="418" />
 <line transform="translate(-10,-20)" style="stroke:rgb(255,0,0);stroke-width:0.9;fill:none;" y1="357" y2="365" x1="418" x2="408" />
 <line transform="translate(-10,-20)" style="stroke:rgb(255,0,0);stroke-width:0.9;fill:none;" y1="370" y2="365" x1="420" x2="408" />
 <line transform="translate(-10,-20)" style="stroke:rgb(255,0,0);stroke-width:0.9;fill:none;" y1="403" y2="414" x1="470" x2="463" />
 <line transform="translate(-10,-20)" style="stroke:rgb(255,0,0);stroke-width:0.9;fill:none;" y1="414" y2="414" x1="463" x2="477" />
 <line transform="translate(-10,-20)" style="stroke:rgb(255,0,0);stroke-width:0.9;fill:none;" y1="403" y2="414" x1="470" x2="477" />
 <line transform="translate(-10,-20)" style="stroke:rgb(255,0,0);stroke-width:0.9;fill:none;" y1="273" y2="284" x1="770" x2="763" />
 <line transform="translate(-10,-20)" style="stroke:rgb(255,0,0);stroke-width:0.9;fill:none;" y1="284" y2="284" x1="763" x2="777" />
 <line transform="translate(-10,-20)" style="stroke:rgb(255,0,0);stroke-width:0.9;fill:none;" y1="273" y2="284" x1="770" x2="777" />
 <line transform="translate(-10,-20)" style="stroke:rgb(255,0,0);stroke-width:0.9;fill:none;" y1="390" y2="383" x1="390" x2="379" />
 <line transform="translate(-10,-20)" style="stroke:rgb(255,0,0);stroke-width:0.9;fill:none;" y1="383" y2="397" x1="379" x2="379" />
 <line transform="translate(-10,-20)" style="stroke:rgb(255,0,0);stroke-width:0.9;fill:none;" y1="390" y2="397" x1="390" x2="379" />
 <line transform="translate(-10,-20)" style="stroke:rgb(255,0,0);stroke-width:0.9;fill:none;" y1="650" y2="641" x1="150" x2="156" />
 <line transform="translate(-10,-20)" style="stroke:rgb(255,0,0);stroke-width:0.9;fill:none;" y1="628" y2="639" x1="154" x2="148" />
 <line transform="translate(-10,-20)" style="stroke:rgb(255,0,0);stroke-width:0.9;fill:none;" y1="641" y2="628" x1="156" x2="154" />
 <line transform="translate(-10,-20)" style="stroke:rgb(255,0,0);stroke-width:0.9;fill:none;" y1="639" y2="650" x1="148" x2="150" />
 <line transform="translate(-10,-20)" style="stroke:rgb(255,0,0);stroke-width:0.9;fill:none;" y1="370" y2="360" x1="1090" x2="1094" />
 <line transform="translate(-10,-20)" style="stroke:rgb(255,0,0);stroke-width:0.9;fill:none;" y1="348" y2="360" x1="1090" x2="1086" />
 <line transform="translate(-10,-20)" style="stroke:rgb(255,0,0);stroke-width:0.9;fill:none;" y1="360" y2="348" x1="1094" x2="1090" />
 <line transform="translate(-10,-20)" style="stroke:rgb(255,0,0);stroke-width:0.9;fill:none;" y1="360" y2="370" x1="1086" x2="1090" />
 <line transform="translate(-10,-20)" style="stroke:rgb(255,0,0);stroke-width:0.9;fill:none;" y1="53" y2="61" x1="880" x2="887" />
 <line transform="translate(-10,-20)" style="stroke:rgb(255,0,0);stroke-width:0.9;fill:none;" y1="62" y2="53" x1="900" x2="891" />
 <line transform="translate(-10,-20)" style="stroke:rgb(255,0,0);stroke-width:0.9;fill:none;" y1="61" y2="62" x1="887" x2="900" />
 <line transform="translate(-10,-20)" style="stroke:rgb(255,0,0);stroke-width:0.9;fill:none;" y1="53" y2="53" x1="891" x2="880" />
 <line transform="translate(-10,-20)" style="stroke:rgb(255,0,0);stroke-width:0.9;fill:none;" y1="670" y2="674" x1="273" x2="283" />
 <line transform="translate(-10,-20)" style="stroke:rgb(255,0,0);stroke-width:0.9;fill:none;" y1="670" y2="666" x1="295" x2="283" />
 <line transform="translate(-10,-20)" style="stroke:rgb(255,0,0);stroke-width:0.9;fill:none;" y1="674" y2="670" x1="283" x2="295" />
 <line transform="translate(-10,-20)" style="stroke:rgb(255,0,0);stroke-width:0.9;fill:none;" y1="666" y2="670" x1="283" x2="273" />
 <line transform="translate(-10,-20)" style="stroke:rgb(255,0,0);stroke-width:0.9;fill:none;" y1="62" y2="72" x1="90" x2="86" />
 <line transform="translate(-10,-20)" style="stroke:rgb(255,0,0);stroke-width:0.9;fill:none;" y1="84" y2="72" x1="90" x2="94" />
 <line transform="translate(-10,-20)" style="stroke:rgb(255,0,0);stroke-width:0.9;fill:none;" y1="72" y2="84" x1="86" x2="90" />
 <line transform="translate(-10,-20)" style="stroke:rgb(255,0,0);stroke-width:0.9;fill:none;" y1="72" y2="62" x1="94" x2="90" />
 <text x="735" y="227" transform="translate(-10,-20)" style="fill:rgb(50,50,50);stroke-width:0;font-size:12;font-style:normal;font-weight:400;font-family:Adobe Helvetica;" text-anchor="middle" >0..1</text>
 <text x="275" y="57" transform="translate(-10,-20)" style="fill:rgb(50,50,50);stroke-width:0;font-size:12;font-style:normal;font-weight:400;font-family:Adobe Helvetica;" text-anchor="middle" >0..1</text>
 <text x="235" y="417" transform="translate(-10,-20)" style="fill:rgb(50,50,50);stroke-width:0;font-size:12;font-style:normal;font-weight:400;font-family:Adobe Helvetica;" text-anchor="middle" >0..1</text>
 <text x="386" y="668" transform="translate(-10,-20)" style="fill:rgb(50,50,50);stroke-width:0;font-size:12;font-style:normal;font-weight:400;font-family:Helvetica [Adobe];" text-anchor="middle" >0..8</text>
 <text x="102" y="648" transform="translate(-10,-20)" style="fill:rgb(50,50,50);stroke-width:0;font-size:12;font-style:normal;font-weight:400;font-family:Helvetica [Adobe];" text-anchor="middle" >0..</text>
</svg>
